<?xml version="1.0" encoding="UTF-8"?>
<svg version="1.1" xmlns="http://www.w3.org/2000/svg" width="500" height="500">
<path d="M0 0 C165 0 330 0 500 0 C500 165 500 330 500 500 C335 500 170 500 0 500 C0 335 0 170 0 0 Z " fill="#FEFEFE" transform="translate(0,0)"/>
<path d="M0 0 C0.70660243 -0.00579339 1.41320487 -0.01158677 2.1412195 -0.01755571 C4.52092798 -0.03566588 6.90061265 -0.04650173 9.28036499 -0.05725098 C10.98194599 -0.06842309 12.68352477 -0.07993632 14.38510132 -0.09176636 C19.9847608 -0.12836728 25.584443 -0.15355104 31.18417358 -0.1763916 C32.61288009 -0.1823104 32.61288009 -0.1823104 34.07044935 -0.18834877 C43.05285549 -0.22477302 52.03526943 -0.25621984 61.01772499 -0.27745819 C72.50871466 -0.3050282 83.99908671 -0.35577814 95.48981917 -0.43793249 C103.56804317 -0.49373279 111.64609967 -0.52269564 119.7245096 -0.5319314 C124.549588 -0.53818823 129.37394269 -0.55630325 134.19881058 -0.60331726 C138.74135 -0.64703056 143.28277119 -0.65745805 147.82548523 -0.64268875 C149.48955865 -0.64301705 151.15368056 -0.65526626 152.8175621 -0.68053818 C166.94168245 -0.88367691 166.94168245 -0.88367691 172.19818115 3.59301758 C176.52558314 8.22175815 176.34621507 11.96885447 176.32113647 18.1151123 C176.3212825 19.04199356 176.32142853 19.96887482 176.32157898 20.92384338 C176.32088054 23.9972261 176.31309136 27.07054873 176.30526733 30.1439209 C176.30340291 32.27098558 176.30197912 34.3980507 176.30097961 36.52511597 C176.29715637 42.13111552 176.28732771 47.73708927 176.27627563 53.34307861 C176.26605739 59.06054333 176.2614811 64.77801219 176.25643921 70.4954834 C176.24570529 81.71945308 176.22863115 92.9434036 176.20761108 104.1673584 C175.52924194 104.43580566 174.8508728 104.70425293 174.15194702 104.98083496 C173.25765991 105.33629395 172.3633728 105.69175293 171.44198608 106.0579834 C170.55736694 106.40893066 169.6727478 106.75987793 168.76132202 107.12145996 C166.62535901 107.99626546 164.54516025 108.93532307 162.45761108 109.9173584 C151.82045775 113.6309208 142.85517815 110.95427691 132.77011108 107.1673584 C117.16429384 101.39673879 106.68313853 102.22558447 91.32479858 108.53845215 C79.34656155 113.42144511 68.56895493 111.52521952 57.03182983 106.6751709 C42.13788844 100.53482073 30.0393036 102.97921247 15.57870483 108.53845215 C5.71221101 112.3157442 -3.0167248 112.0256471 -12.79238892 108.1673584 C-13.78238892 107.8373584 -14.77238892 107.5073584 -15.79238892 107.1673584 C-15.80069561 94.38003968 -15.77684714 81.59322199 -15.71211052 68.80605221 C-15.68305626 62.8681943 -15.66501889 56.93073122 -15.67227173 50.99279785 C-15.67886593 45.26072397 -15.6563736 39.52943024 -15.61383438 33.79751778 C-15.60270495 31.61232849 -15.60200148 29.42706007 -15.61196518 27.24186516 C-15.62414699 24.17702375 -15.59903911 21.11456021 -15.56533813 18.04992676 C-15.58366951 16.69909248 -15.58366951 16.69909248 -15.60237122 15.32096863 C-15.48903946 9.58964905 -14.25688837 6.60071488 -10.27302742 2.4488306 C-7.01978572 -0.36680522 -4.19981941 0.02699836 0 0 Z " fill="#F7F9F9" transform="translate(77.79238891601563,181.8326416015625)"/>
<path d="M0 0 C6.56527228 -0.07629277 13.13042948 -0.1287016 19.69604492 -0.16479492 C21.92785922 -0.17984741 24.1596441 -0.20029398 26.39135742 -0.22631836 C29.60603104 -0.26285688 32.82031228 -0.27976215 36.03515625 -0.29296875 C37.52306419 -0.31619453 37.52306419 -0.31619453 39.04103088 -0.33988953 C45.60420807 -0.34147087 50.68154458 0.28061665 55.92578125 4.578125 C56.61220703 5.40570313 56.61220703 5.40570313 57.3125 6.25 C57.78300781 6.79140625 58.25351563 7.3328125 58.73828125 7.890625 C61.91382139 13.19957756 62.33404815 18.8867581 62.25 24.9375 C62.23984863 25.99408813 62.23984863 25.99408813 62.22949219 27.07202148 C62.06915646 35.11957011 60.60825876 41.34362624 56 48 C47.93020533 55.10910483 37.12202038 54.21536214 27 54 C27 61.26 27 68.52 27 76 C25.453125 75.54625 23.90625 75.0925 22.3125 74.625 C17.92848579 73.42004325 13.60315283 72.5602848 9.10546875 71.8984375 C7.38106567 71.64199463 7.38106567 71.64199463 5.62182617 71.38037109 C4.32402222 71.1920874 4.32402222 71.1920874 3 71 C2.99191315 70.19899872 2.98382629 69.39799744 2.97549438 68.57272339 C2.89743371 61.0103526 2.81010873 53.44817157 2.71247292 45.8860302 C2.66260601 41.99860044 2.61627547 38.1111966 2.578125 34.22363281 C2.54115037 30.46931562 2.49475809 26.7152204 2.44193649 22.9610939 C2.42345704 21.53147413 2.40832545 20.1018069 2.39665604 18.67211533 C2.37968349 16.66396419 2.34951738 14.65593787 2.31884766 12.64794922 C2.30552399 11.50655487 2.29220032 10.36516052 2.2784729 9.18917847 C1.98735993 5.85524104 1.18310216 3.11990468 0 0 Z " fill="#393939" transform="translate(181,194)"/>
<path d="M0 0 C0.78826172 0.02255859 1.57652344 0.04511719 2.38867188 0.06835938 C4.32243929 0.12695839 6.25522167 0.21663173 8.1875 0.3125 C11.21677074 9.64861309 13.97184404 18.98863513 16.2734375 28.53125 C17.3509585 32.9886873 18.50727739 37.42399262 19.671875 41.859375 C20.1875 44.3125 20.1875 44.3125 20.1875 48.3125 C20.8475 48.3125 21.5075 48.3125 22.1875 48.3125 C22.28981934 47.6006958 22.39213867 46.8888916 22.49755859 46.15551758 C23.89555084 37.07151424 26.2551087 28.40451861 28.796875 19.58398438 C31.57342452 9.99415187 31.57342452 9.99415187 30.1875 0.3125 C37.1175 0.3125 44.0475 0.3125 51.1875 0.3125 C49.47117499 8.26179479 47.4381361 15.91715853 44.9543457 23.65063477 C43.66857125 27.68295955 42.60841469 31.6613101 41.7734375 35.8046875 C40.93971336 39.37302681 39.86659972 42.86706236 38.8125 46.375 C36.33610779 54.6259597 34.20485376 62.93879138 32.1875 71.3125 C31.41148438 71.39886719 30.63546875 71.48523438 29.8359375 71.57421875 C22.04969444 72.58698784 15.26866108 74.48704757 7.98828125 77.2890625 C5.1875 78.3125 5.1875 78.3125 3.1875 78.3125 C-0.41672144 65.17201167 -3.96526065 52.03509569 -7.02685547 38.75634766 C-8.54988523 32.21657705 -10.31007405 25.76264019 -12.28955078 19.34570312 C-13.71917028 14.49491994 -14.41059597 10.37291199 -13.8125 5.3125 C-10.08298682 -0.39014239 -6.23703961 -0.33982194 0 0 Z " fill="#393939" transform="translate(89.8125,193.6875)"/>
<path d="M0 0 C11.86830232 4.80220325 21.95878133 3.18523042 33.703125 -1.15625 C50.81543326 -6.95444798 61.4952884 -5.5219743 78.19775391 1.08764648 C88.87700441 4.99244445 98.65951588 2.50636713 108.9921875 -1.0625 C112.265625 -2.15625 112.265625 -2.15625 114.265625 -2.15625 C114.265625 2.13375 114.265625 6.42375 114.265625 10.84375 C98.54658957 17.23793391 87.93065484 18.81559218 71.828125 12.84375 C56.21824666 7.07958063 45.74541124 7.90022555 30.3828125 14.21484375 C18.40457546 19.09783671 7.62696885 17.20161113 -3.91015625 12.3515625 C-18.80409765 6.21121234 -30.90268249 8.65560407 -45.36328125 14.21484375 C-55.1135086 17.94762431 -64.08417871 17.85773251 -73.734375 13.84375 C-74.394375 13.51375 -75.054375 13.18375 -75.734375 12.84375 C-75.734375 8.88375 -75.734375 4.92375 -75.734375 0.84375 C-74.373125 1.17375 -73.011875 1.50375 -71.609375 1.84375 C-57.52834792 4.50240546 -47.66628181 2.0399641 -34.71044922 -3.40014648 C-22.89958104 -7.91932844 -11.14238519 -4.71163717 0 0 Z " fill="#3A9E9F" transform="translate(138.734375,276.15625)"/>
<path d="M0 0 C13.44175918 4.92498528 22.54341279 4.63965095 35.9453125 -0.3125 C51.68246099 -6.05665328 61.14584954 -4.71354632 76.74902344 0.81347656 C88.47810565 4.895893 96.75618368 4.80213055 108.6328125 0.66015625 C111.5078125 -0.3125 111.5078125 -0.3125 116.5078125 -1.3125 C116.5078125 2.6475 116.5078125 6.6075 116.5078125 10.6875 C114.63397347 11.48191072 112.75868364 12.27289974 110.8828125 13.0625 C109.83867187 13.50335938 108.79453125 13.94421875 107.71875 14.3984375 C94.47108282 19.71684403 84.60168327 17.57784603 71.5078125 12.53125 C58.86647031 7.82436727 47.98554206 9.03762223 35.5078125 13.6875 C34.71117187 13.98398437 33.91453125 14.28046875 33.09375 14.5859375 C32.40539062 14.84632813 31.71703125 15.10671875 31.0078125 15.375 C17.96720083 20.26522938 6.42196432 16.59816697 -6.02734375 11.6875 C-18.75551277 6.73897821 -30.32166325 10.46069881 -42.47338867 14.96118164 C-52.91704647 18.71857455 -62.13463241 18.80068546 -72.4921875 14.6875 C-73.4921875 13.6875 -73.4921875 13.6875 -73.58984375 10.96484375 C-73.57824219 9.86269531 -73.56664062 8.76054687 -73.5546875 7.625 C-73.54566406 6.52027344 -73.53664062 5.41554688 -73.52734375 4.27734375 C-73.51574219 3.42269531 -73.50414062 2.56804687 -73.4921875 1.6875 C-72.63560547 1.9040625 -72.63560547 1.9040625 -71.76171875 2.125 C-57.69667339 5.34497859 -46.23253962 3.49437088 -33.2578125 -2.3125 C-22.21904262 -7.21861994 -10.70994172 -4.025213 0 0 Z " fill="#3A7576" transform="translate(136.4921875,292.3125)"/>
<path d="M0 0 C29.58041958 0 29.58041958 0 39 9 C45.85595665 16.90266759 46.90355199 24.89349243 46.23828125 35.06738281 C45.39027384 41.94527898 41.10299613 47.99431991 36.0234375 52.52734375 C25.06988903 60.49932787 13.7967188 58 0 58 C0 38.86 0 19.72 0 0 Z " fill="#3C7777" transform="translate(261,245)"/>
<path d="M0 0 C27 0 27 0 35 5 C40.36181498 10.78511617 41.46405652 15.1802872 41.3125 22.95703125 C40.71014006 28.82251113 38.40046093 32.99186112 34.0625 36.9375 C31.17972854 38.87895833 29.41848324 39.69836913 26 40 C29.6626389 44.9945076 34.2080061 45.08547465 40 46 C40 49.63 40 53.26 40 57 C32.00838358 57.57082974 26.66824599 56.55735643 20 52 C17.11661348 49.46767515 14.5983417 46.8389289 12 44 C11.67 48.29 11.34 52.58 11 57 C7.37 57 3.74 57 0 57 C0 38.19 0 19.38 0 0 Z " fill="#3D7778" transform="translate(339,246)"/>
<path d="M0 0 C7.92 0 15.84 0 24 0 C26.1548767 4.3097534 26.24361076 6.32732303 26.22705078 11.06347656 C26.22734283 11.76631775 26.22763489 12.46915894 26.22793579 13.19329834 C26.22654592 15.50920084 26.21100113 17.82477892 26.1953125 20.140625 C26.19158115 21.74916406 26.18873475 23.35770541 26.18673706 24.96624756 C26.17911023 29.19460351 26.15946994 33.4228215 26.1373291 37.65112305 C26.11685018 41.96791722 26.10773097 46.28473373 26.09765625 50.6015625 C26.07622312 59.06777156 26.04209868 67.5338686 26 76 C17.80919903 78.91691481 10.71414306 80.62867565 2 80 C1.98969254 79.05674866 1.97938507 78.11349731 1.96876526 77.1416626 C1.87102736 68.25429374 1.76829287 59.36699484 1.66066074 50.47974014 C1.60548624 45.91067139 1.55207498 41.34159618 1.50268555 36.77246094 C1.45496128 32.36336483 1.40261556 27.95434563 1.34705925 23.54534149 C1.32667222 21.86285059 1.30795316 20.18033862 1.29092598 18.49781036 C1.26680103 16.1420175 1.23675768 13.78636914 1.20532227 11.43066406 C1.19668907 10.38625153 1.19668907 10.38625153 1.18788147 9.32073975 C1.13713662 5.97721776 0.81964425 3.27857698 0 0 Z " fill="#393939" transform="translate(146,194)"/>
<path d="M0 0 C0.70660243 -0.00579339 1.41320487 -0.01158677 2.1412195 -0.01755571 C4.52092798 -0.03566588 6.90061265 -0.04650173 9.28036499 -0.05725098 C10.98194599 -0.06842309 12.68352477 -0.07993632 14.38510132 -0.09176636 C19.9847608 -0.12836728 25.584443 -0.15355104 31.18417358 -0.1763916 C32.61288009 -0.1823104 32.61288009 -0.1823104 34.07044935 -0.18834877 C43.05285549 -0.22477302 52.03526943 -0.25621984 61.01772499 -0.27745819 C72.50871466 -0.3050282 83.99908671 -0.35577814 95.48981917 -0.43793249 C103.56804317 -0.49373279 111.64609967 -0.52269564 119.7245096 -0.5319314 C124.549588 -0.53818823 129.37394269 -0.55630325 134.19881058 -0.60331726 C138.74135 -0.64703056 143.28277119 -0.65745805 147.82548523 -0.64268875 C149.48955865 -0.64301705 151.15368056 -0.65526626 152.8175621 -0.68053818 C166.94168245 -0.88367691 166.94168245 -0.88367691 172.19818115 3.59301758 C176.1752586 7.84703876 176.34899592 10.97790109 176.32113647 16.6463623 C176.3212825 17.41718643 176.32142853 18.18801056 176.32157898 18.98219299 C176.32088098 21.53613069 176.31309384 24.08999591 176.30526733 26.6439209 C176.30340275 28.41226156 176.30197904 30.18060273 176.30097961 31.94894409 C176.29715758 36.60800599 176.28732996 41.26703682 176.27627563 45.92608643 C176.26605478 50.67838114 176.26148054 55.43068087 176.25643921 60.1829834 C176.24570743 69.51112206 176.22863475 78.83923765 176.20761108 88.1673584 C173.73261108 89.1573584 173.73261108 89.1573584 171.20761108 90.1673584 C171.19952423 89.1990509 171.19143738 88.23074341 171.18310547 87.23309326 C171.10563972 78.11021278 171.01789931 68.98748135 170.920084 59.86479568 C170.87012611 55.17466442 170.82379598 50.48455563 170.78573608 45.79431152 C170.74887693 41.26844596 170.70251519 36.74276861 170.64954758 32.2170639 C170.63100699 30.4899297 170.61589778 28.76275516 170.60426712 27.03556061 C170.5873989 24.61738286 170.55836274 22.19963581 170.52645874 19.78161621 C170.52429855 19.06663971 170.52213837 18.35166321 170.51991272 17.61502075 C170.45915595 14.01318823 170.40405927 11.11204957 168.20761108 8.1673584 C164.66685745 5.83325575 161.54581687 5.91827325 157.37557983 5.92012024 C156.6889476 5.91770582 156.00231537 5.91529141 155.2948761 5.91280383 C152.99485757 5.90716958 150.69511712 5.91582777 148.39511108 5.92443848 C146.74585902 5.92336552 145.09660732 5.92142664 143.44735718 5.91868591 C138.96809228 5.91383654 134.48892693 5.92149449 130.00967407 5.93163896 C125.32435213 5.94041862 120.63903332 5.93866202 115.95370483 5.9382782 C108.08519829 5.93921492 100.2167303 5.94789986 92.34823608 5.96154785 C83.24826588 5.97727344 74.14833791 5.98254595 65.0483551 5.9818123 C56.29821181 5.98120209 47.54808228 5.98630685 38.79794312 5.99460411 C35.07235609 5.9981365 31.34677393 5.9999673 27.6211853 6.00049782 C23.23487806 6.00150184 18.84860632 6.00760337 14.46231079 6.01766396 C12.85143247 6.0205865 11.24055006 6.02181482 9.62966919 6.02123642 C7.43295575 6.02074612 5.23634191 6.02639758 3.03964233 6.03364563 C1.80963501 6.03532147 0.57962769 6.03699732 -0.68765259 6.03872395 C-4.34016962 6.16015093 -4.34016962 6.16015093 -7.79238892 7.1673584 C-9.02149012 10.85466202 -8.96881922 14.2852029 -8.99771118 18.1270752 C-9.00761078 18.93705963 -9.01751038 19.74704407 -9.02770996 20.58157349 C-9.059307 23.25987827 -9.08407531 25.93820079 -9.10879517 28.61657715 C-9.12936624 30.47317466 -9.15036276 32.32976751 -9.17176819 34.18635559 C-9.22697298 39.07386496 -9.27638931 43.96141648 -9.32461548 48.84899902 C-9.3748421 53.83601637 -9.43052211 58.82297248 -9.48574829 63.80993652 C-9.5933104 73.5956915 -9.69475974 83.38149964 -9.79238892 93.1673584 C-11.44238892 92.8373584 -13.09238892 92.5073584 -14.79238892 92.1673584 C-14.93157591 81.33617994 -15.03810486 70.50521518 -15.10326195 59.67332363 C-15.13453872 54.64326261 -15.17694471 49.61381465 -15.24502563 44.58410645 C-15.31034864 39.72760581 -15.34612244 34.87169382 -15.36165237 30.01478767 C-15.37271554 28.16440632 -15.39432005 26.3140562 -15.42676926 24.46392632 C-15.47050652 21.8662411 -15.4763161 19.27096942 -15.47354126 16.67297363 C-15.49511292 15.91267853 -15.51668457 15.15238342 -15.53890991 14.36904907 C-15.47755134 9.03950676 -13.90922389 6.36305498 -10.27625465 2.49723911 C-7.05375543 -0.39085208 -4.21324715 0.02708468 0 0 Z " fill="#447675" transform="translate(77.79238891601563,181.8326416015625)"/>
<path d="M0 0 C0 17.16 0 34.32 0 52 C-4.62 52 -9.24 52 -14 52 C-18.47968801 42.76912775 -21.810288 33.27753928 -25.09619141 23.56958008 C-26.34240017 20.02653653 -27.68124309 16.51668509 -29 13 C-29.33 26.2 -29.66 39.4 -30 53 C-33.96 53 -37.92 53 -42 53 C-43 52 -43 52 -43.12025452 49.94358826 C-43.11803391 49.03979935 -43.11581329 48.13601044 -43.11352539 47.20483398 C-43.11344986 46.18385117 -43.11337433 45.16286835 -43.11329651 44.11094666 C-43.10813522 43.0005452 -43.10297394 41.89014374 -43.09765625 40.74609375 C-43.0962413 39.61551041 -43.09482635 38.48492706 -43.09336853 37.32008362 C-43.08775019 33.69252935 -43.07519458 30.06503576 -43.0625 26.4375 C-43.05748736 23.98502693 -43.05292405 21.5325529 -43.04882812 19.08007812 C-43.0377748 13.05336455 -43.02101884 7.02668661 -43 1 C-37.31396484 1.87207031 -37.31396484 1.87207031 -34.48828125 3.0234375 C-31.6588621 4.13388457 -29.21240711 4.40633202 -26.1875 4.625 C-24.475625 4.74875 -22.76375 4.8725 -21 5 C-17.535 13.91 -17.535 13.91 -14 23 C-13.67 16.73 -13.34 10.46 -13 4 C-5 0 -5 0 0 0 Z " fill="#EE6F19" transform="translate(451,187)"/>
<path d="M0 0 C11.13570331 1.50627871 11.13570331 1.50627871 15 4 C16.20762614 7.01418276 17.1290441 9.88153281 18 13 C18.34466309 14.1952832 18.68932617 15.39056641 19.04443359 16.62207031 C20.23896112 20.78367087 21.40156286 24.9539288 22.5625 29.125 C22.96528602 30.5664646 23.36827942 32.00787127 23.77148438 33.44921875 C24.51375908 36.10266752 25.25460593 38.75649713 25.99438477 41.41064453 C26.67830931 43.85178527 27.39088943 46.28503948 28.12866211 48.71044922 C29 52 29 52 29 56 C26.03 56 23.06 56 20 56 C18 50.375 18 50.375 18 47 C11.73 47.33 5.46 47.66 -1 48 C-1.66 50.64 -2.32 53.28 -3 56 C-6.96 56 -10.92 56 -15 56 C-14.367296 51.84295214 -13.48880318 47.85904289 -12.36328125 43.80859375 C-12.03585937 42.62547607 -11.7084375 41.4423584 -11.37109375 40.22338867 C-11.02175781 38.97404541 -10.67242187 37.72470215 -10.3125 36.4375 C-9.95294284 35.14368668 -9.59356933 33.8498223 -9.234375 32.5559082 C-6.21235491 21.68797546 -3.12707156 10.83814575 0 0 Z " fill="#EF701A" transform="translate(319,184)"/>
<path d="M0 0 C4.16138263 -0.08159574 7.9472484 0.01751476 12 1 C12.09938156 6.55007795 12.1717096 12.09963018 12.21972656 17.65039062 C12.23975767 19.53589916 12.26699073 21.42134623 12.30175781 23.30664062 C12.35065272 26.02749862 12.37305382 28.74753056 12.390625 31.46875 C12.41127014 32.30241089 12.43191528 33.13607178 12.45318604 33.99499512 C12.45572077 40.70866851 10.69303661 45.94080491 6.21875 51.0234375 C5.6515625 51.46945313 5.084375 51.91546875 4.5 52.375 C3.9328125 52.83648437 3.365625 53.29796875 2.78125 53.7734375 C-3.19561124 57.88908318 -8.89464024 57.65522479 -16 57 C-21.50772294 55.67423147 -24.28269923 52.99559263 -27.4375 48.375 C-30.42257758 43.47849672 -31.13913923 40.30459964 -31.09765625 34.5859375 C-31.0962413 33.85629791 -31.09482635 33.12665833 -31.09336853 32.37490845 C-31.08776531 30.04156415 -31.07521235 27.70831536 -31.0625 25.375 C-31.05748541 23.79427222 -31.05292243 22.21354293 -31.04882812 20.6328125 C-31.03779484 16.75517146 -31.02052811 12.87760193 -31 9 C-27.12315913 7.80712589 -24.08378077 7 -20 7 C-19.98541748 7.94319092 -19.97083496 8.88638184 -19.95581055 9.8581543 C-19.89460394 13.37158661 -19.82042492 16.88425446 -19.73754883 20.3972168 C-19.70438084 21.91501621 -19.67632368 23.43293656 -19.65356445 24.95092773 C-19.61986722 27.13838019 -19.56754796 29.32473264 -19.51171875 31.51171875 C-19.48553467 32.82615967 -19.45935059 34.14060059 -19.43237305 35.49487305 C-18.98103333 39.15375743 -18.21472589 41.08810216 -16 44 C-12.85154494 45.57422753 -9.40781928 45.66928343 -6 45 C-3.23570843 43.63346698 -3.23570843 43.63346698 -1 41 C-0.23775993 37.88984898 -0.27864946 34.8309113 -0.29296875 31.640625 C-0.27784744 30.73624695 -0.26272614 29.8318689 -0.24714661 28.90008545 C-0.20421844 26.01647102 -0.19542677 23.13390233 -0.1875 20.25 C-0.16435964 18.29294085 -0.13899527 16.33590664 -0.11132812 14.37890625 C-0.04842522 9.58584485 -0.01612994 4.79343781 0 0 Z " fill="#EE701C" transform="translate(388,183)"/>
<path d="M0 0 C3.96 0 7.92 0 12 0 C13.17314026 2.76825188 14.33870215 5.53928486 15.5 8.3125 C16.00080078 9.49102539 16.00080078 9.49102539 16.51171875 10.69335938 C16.82753906 11.45068359 17.14335937 12.20800781 17.46875 12.98828125 C17.90864258 14.03302612 17.90864258 14.03302612 18.35742188 15.09887695 C19 17 19 17 19 20 C21.13575435 19.19942857 21.13575435 19.19942857 21.76196289 17.25 C21.9964917 16.5075 22.23102051 15.765 22.47265625 15 C22.73240234 14.195625 22.99214844 13.39125 23.25976562 12.5625 C23.52466797 11.716875 23.78957031 10.87125 24.0625 10 C24.59248557 8.33251543 25.12491012 6.66580343 25.66015625 5 C25.89355713 4.2575 26.12695801 3.515 26.36743164 2.75 C27 1 27 1 28 0 C30.18639453 -0.07258946 32.37500389 -0.08373783 34.5625 -0.0625 C36.35880859 -0.04896484 36.35880859 -0.04896484 38.19140625 -0.03515625 C39.11824219 -0.02355469 40.04507813 -0.01195312 41 0 C40.36876697 4.72400781 39.0691856 9.00427241 37.41796875 13.453125 C37.16251785 14.15338806 36.90706696 14.85365112 36.64387512 15.57513428 C36.10413685 17.05179823 35.56191002 18.52755471 35.01733398 20.00244141 C34.19576743 22.22760812 33.38136383 24.4552863 32.56835938 26.68359375 C30.34560201 32.76044207 28.10000052 38.82983557 25.76171875 44.86328125 C25.47385498 45.60618408 25.18599121 46.34908691 24.8894043 47.11450195 C22.47115389 52.2410866 18.15071929 55.04272667 13 57 C9.125 57.1875 9.125 57.1875 6 57 C6 53.7 6 50.4 6 47 C7.7578125 46.38151042 9.515625 45.76302083 11.2734375 45.14453125 C13.82962539 43.45004471 14.22728828 41.94812633 15 39 C14.22366408 35.70349857 14.22366408 35.70349857 12.67578125 32.265625 C12.41371384 31.62816345 12.15164642 30.9907019 11.88163757 30.33392334 C11.0413142 28.2988198 10.17792141 26.27454115 9.3125 24.25 C8.4718138 22.2424056 7.63604323 20.2328247 6.80123901 18.22277832 C6.26339537 16.92794787 5.72364943 15.6339058 5.18191528 14.34069824 C3.21615644 9.62040678 1.52090665 4.87979942 0 0 Z " fill="#3A7676" transform="translate(409,246)"/>
<path d="M0 0 C11 2 11 2 12 3 C12.08855161 5.6662603 12.11524673 8.30647114 12.09765625 10.97265625 C12.0962413 11.77029892 12.09482635 12.56794159 12.09336853 13.38975525 C12.08775316 15.94737435 12.07519812 18.50490718 12.0625 21.0625 C12.05748698 22.79231645 12.05292373 24.52213426 12.04882812 26.25195312 C12.03862791 30.50136239 12.01905568 34.75058416 12 39 C20.25 39 28.5 39 37 39 C36 47 36 47 34 51 C22.78 51 11.56 51 0 51 C0 34.17 0 17.34 0 0 Z " fill="#F06D16" transform="translate(261,189)"/>
<path d="M0 0 C14.30649318 5.55224432 25.42789542 4.46687386 39.46484375 -1.46875 C52.01061968 -6.66522524 62.00405272 -4.90616171 74.29296875 -0.3125 C86.15614154 4.1143295 94.64114938 5.90804099 106.85546875 1.125 C107.88929688 0.64933594 108.923125 0.17367188 109.98828125 -0.31640625 C112.8496913 -1.35580734 113.95427152 -1.42165057 116.73046875 -0.3125 C116.40046875 0.0175 116.07046875 0.3475 115.73046875 0.6875 C116.72046875 1.1825 116.72046875 1.1825 117.73046875 1.6875 C117.73046875 6.3075 117.73046875 10.9275 117.73046875 15.6875 C116.08046875 16.0175 114.43046875 16.3475 112.73046875 16.6875 C113.72046875 16.0275 114.71046875 15.3675 115.73046875 14.6875 C116.31527996 11.80154054 116.31527996 11.80154054 116.41796875 8.5625 C116.51658203 6.91894531 116.51658203 6.91894531 116.6171875 5.2421875 C116.65457031 4.39914062 116.69195312 3.55609375 116.73046875 2.6875 C115.76625 3.03683594 114.80203125 3.38617188 113.80859375 3.74609375 C112.53258872 4.20583086 111.25654501 4.66546063 109.98046875 5.125 C109.02914062 5.47014648 109.02914062 5.47014648 108.05859375 5.82226562 C95.39971259 10.37155104 86.28604307 9.16662294 73.79296875 4.6875 C57.98760742 -0.83901034 48.67645251 0.06547618 33.12670898 5.8112793 C19.52756389 10.74776336 9.8644438 8.62375908 -3.26953125 3.6875 C-18.41920641 -1.96602309 -29.90157705 0.88829442 -44.29345703 6.93139648 C-53.84984934 10.58795035 -63.89018032 9.0472675 -73.26953125 5.6875 C-73.26953125 9.6475 -73.26953125 13.6075 -73.26953125 17.6875 C-73.59953125 17.6875 -73.92953125 17.6875 -74.26953125 17.6875 C-74.29662569 15.60423869 -74.31596998 13.52087559 -74.33203125 11.4375 C-74.34363281 10.27734375 -74.35523438 9.1171875 -74.3671875 7.921875 C-74.28735217 5.27772872 -74.05596903 3.18923909 -73.26953125 0.6875 C-72.25246094 1.01234375 -72.25246094 1.01234375 -71.21484375 1.34375 C-57.12074382 5.56026743 -46.25284247 2.99762834 -32.76953125 -2.5625 C-21.53245518 -6.74951067 -10.71300834 -4.30056249 0 0 Z " fill="#E4F2F2" transform="translate(136.26953125,288.3125)"/>
<path d="M0 0 C0.71224696 -0.00085442 1.42449392 -0.00170885 2.15832412 -0.00258917 C4.55673631 -0.00424277 6.95507931 0.00127545 9.35348511 0.00672913 C11.06804401 0.00701105 12.78260303 0.00685316 14.49716187 0.00628662 C19.16219442 0.00599885 23.82720143 0.01189233 28.49222803 0.01886058 C33.36361214 0.02509746 38.23499679 0.02569818 43.10638428 0.02688599 C52.33572442 0.02999831 61.56505276 0.03821038 70.7943877 0.04823548 C81.29967396 0.05939967 91.80496077 0.06490784 102.31025147 0.06993091 C123.92476693 0.08039307 145.53927176 0.09799061 167.15377808 0.12025452 C167.15377808 0.45025452 167.15377808 0.78025452 167.15377808 1.12025452 C135.21371126 2.47633726 103.24877904 2.24062331 71.28778923 2.19228113 C63.6209298 2.18089524 55.95406926 2.17555315 48.28720343 2.17057812 C32.57605184 2.16025489 16.86491722 2.14278206 1.15377808 2.12025452 C1.15377808 2.78025452 1.15377808 3.44025452 1.15377808 4.12025452 C0.51569214 4.30201233 -0.1223938 4.48377014 -0.77981567 4.67103577 C-1.60610474 4.92240295 -2.4323938 5.17377014 -3.28372192 5.43275452 C-4.51928833 5.79820374 -4.51928833 5.79820374 -5.77981567 6.17103577 C-6.80268677 6.64089905 -6.80268677 6.64089905 -7.84622192 7.12025452 C-9.07532313 10.80755814 -9.02265223 14.23809902 -9.05154419 18.07997131 C-9.06144379 18.88995575 -9.07134338 19.69994019 -9.08154297 20.5344696 C-9.11314001 23.21277439 -9.13790832 25.89109691 -9.16262817 28.56947327 C-9.18319925 30.42607078 -9.20419576 32.28266363 -9.2256012 34.13925171 C-9.28080599 39.02676108 -9.33022232 43.9143126 -9.37844849 48.80189514 C-9.42867511 53.78891249 -9.48435512 58.77586859 -9.5395813 63.76283264 C-9.64714341 73.54858762 -9.74859274 83.33439576 -9.84622192 93.12025452 C-11.49622192 92.79025452 -13.14622192 92.46025452 -14.84622192 92.12025452 C-14.98540892 81.28907606 -15.09193787 70.4581113 -15.15709496 59.62621975 C-15.18837173 54.59615872 -15.23077772 49.56671077 -15.29885864 44.53700256 C-15.36418165 39.68050193 -15.39995545 34.82458994 -15.41548538 29.96768379 C-15.42654854 28.11730244 -15.44815306 26.26695232 -15.48060226 24.41682243 C-15.52433953 21.81913721 -15.5301491 19.22386554 -15.52737427 16.62586975 C-15.54894592 15.86557465 -15.57051758 15.10527954 -15.59274292 14.32194519 C-15.53138435 8.99240288 -13.9630569 6.3159511 -10.33008766 2.45013523 C-7.08701759 -0.45639211 -4.23818168 -0.00304905 0 0 Z " fill="#699391" transform="translate(77.84622192382813,181.87974548339844)"/>
<path d="M0 0 C9.80874223 0 13.99005939 0.5019667 20.9375 6.5625 C24.78051758 11.10424805 24.45481902 15.96819144 24.41015625 21.69140625 C23.78347234 26.74665648 21.72366642 29.63835671 18 33 C12.06728466 37.52016407 8.35849071 36 0 36 C0 24.12 0 12.24 0 0 Z " fill="#F5F8F8" transform="translate(272,256)"/>
<path d="M0 0 C8 1 8 1 9 2 C9.12209924 3.41117702 9.17770872 4.82820459 9.20532227 6.24438477 C9.22526749 7.14524307 9.24521271 8.04610138 9.26576233 8.97425842 C9.28247482 9.95341721 9.29918732 10.93257599 9.31640625 11.94140625 C9.33718735 12.93881332 9.35796844 13.9362204 9.37937927 14.96385193 C9.44498637 18.16332843 9.50381134 21.36288982 9.5625 24.5625 C9.60567462 26.72592039 9.64928855 28.88933206 9.69335938 31.05273438 C9.80067909 36.36840164 9.90191469 41.68415464 10 47 C6.7 47 3.4 47 0 47 C0 31.49 0 15.98 0 0 Z " fill="#F26D14" transform="translate(410,191)"/>
<path d="M0 0 C4.37203502 -0.0252705 8.74403292 -0.04497146 13.11612546 -0.05689526 C14.49977852 -0.06138548 15.8834272 -0.06756917 17.26706469 -0.07552052 C19.17419991 -0.08606691 21.08136992 -0.08963664 22.98853159 -0.09285355 C24.0751304 -0.09669807 25.1617292 -0.1005426 26.28125525 -0.10450363 C28.85121775 0.01249313 28.85121775 0.01249313 30.85121775 1.01249313 C30.85121775 1.67249313 30.85121775 2.33249313 30.85121775 3.01249313 C-23.26878225 3.01249313 -77.38878225 3.01249313 -133.14878225 3.01249313 C-133.14878225 2.35249313 -133.14878225 1.69249313 -133.14878225 1.01249313 C-116.60390721 0.88061455 -100.05902151 0.75017264 -83.51412249 0.62134171 C-75.82829086 0.56146225 -68.14246313 0.50115031 -60.45664358 0.43973923 C-53.740717 0.38607895 -47.02478402 0.3333125 -40.30884272 0.28152609 C-36.76824987 0.25419594 -33.22766118 0.22648202 -29.68707991 0.19768906 C-19.79145078 0.11747937 -9.89578334 0.05753461 0 0 Z " fill="#357372" transform="translate(212.14878225326538,182.98750686645508)"/>
<path d="M0 0 C12.94619459 -0.60496236 12.94619459 -0.60496236 17.375 1.9375 C19.59417312 6.1197878 19.97087857 9.37158752 19 14 C17.375 17.0625 17.375 17.0625 14 19 C9.25063605 19.40877878 4.7851261 19.22360402 0 19 C0 12.73 0 6.46 0 0 Z " fill="#F9FCFB" transform="translate(350,257)"/>
<path d="M0 0 C0.66 0 1.32 0 2 0 C2 0.99 2 1.98 2 3 C2.66 3 3.32 3 4 3 C4 29.73 4 56.46 4 84 C2.68 84 1.36 84 0 84 C0 56.28 0 28.56 0 0 Z " fill="#3D7473" transform="translate(63,190)"/>
<path d="M0 0 C9.88668633 -1.124552 17.3079556 0.48543431 26.5625 4 C38.42100742 8.43288024 46.91564447 10.21859719 59.125 5.4375 C60.15882813 4.96183594 61.19265625 4.48617188 62.2578125 3.99609375 C65.11922255 2.95669266 66.22380277 2.89084943 69 4 C68.67 4.33 68.34 4.66 68 5 C68.99 5.495 68.99 5.495 70 6 C70 10.62 70 15.24 70 20 C68.35 20.33 66.7 20.66 65 21 C65.99 20.34 66.98 19.68 68 19 C68.58481121 16.11404054 68.58481121 16.11404054 68.6875 12.875 C68.75324219 11.77929688 68.81898438 10.68359375 68.88671875 9.5546875 C68.92410156 8.71164062 68.96148437 7.86859375 69 7 C68.03578125 7.34933594 67.0715625 7.69867188 66.078125 8.05859375 C64.80211997 8.51833086 63.52607626 8.97796063 62.25 9.4375 C61.29867187 9.78264648 61.29867187 9.78264648 60.328125 10.13476562 C46.44385332 15.12442576 36.34005146 12.94854842 22.75488281 7.93383789 C16.45222606 5.64069757 10.71228817 4.28757702 4 4 C4 3.67 4 3.34 4 3 C5.98 2.67 7.96 2.34 10 2 C6.7 1.67 3.4 1.34 0 1 C0 0.67 0 0.34 0 0 Z " fill="#E6F2F2" transform="translate(184,284)"/>
<path d="M0 0 C0.68774565 -0.00085442 1.37549129 -0.00170885 2.08407772 -0.00258917 C4.3995736 -0.00424253 6.7149978 0.00127506 9.03048706 0.00672913 C10.68593341 0.00701105 12.34137989 0.00685315 13.99682617 0.00628662 C18.50070721 0.00599887 23.0045618 0.01189204 27.50843668 0.01886058 C32.21165744 0.02509778 36.91487877 0.02569821 41.61810303 0.02688599 C50.52869967 0.02999822 59.43928408 0.03821015 68.34987533 0.04823548 C78.49241147 0.05939997 88.63494819 0.06490791 98.77748895 0.06993091 C119.64551989 0.08039285 140.51353981 0.09799021 161.38156128 0.12025452 C161.38156128 0.45025452 161.38156128 0.78025452 161.38156128 1.12025452 C160.52549695 1.12079928 159.66943262 1.12134405 158.78742695 1.12190533 C137.96428454 1.136868 117.14135637 1.179294 96.31833363 1.25234509 C86.24848314 1.28700868 76.17876974 1.3123524 66.1088562 1.31581116 C57.33262711 1.31884915 48.55664207 1.33931735 39.78050727 1.38077909 C35.13288253 1.40212583 30.4856049 1.41470114 25.83793068 1.40640831 C21.46372304 1.3988787 17.09021934 1.41464605 12.71614075 1.44831467 C11.11054242 1.45656117 9.50487426 1.45628226 7.89928246 1.44685173 C5.70629044 1.4352459 3.51561177 1.45431776 1.32279968 1.48101807 C-0.51756001 1.48516613 -0.51756001 1.48516613 -2.39509869 1.489398 C-6.54822075 2.30222696 -8.03918487 3.82618257 -10.61843872 7.12025452 C-11.11671674 9.98592699 -11.31123 12.26300246 -11.27786255 15.12342834 C-11.28834625 15.91419769 -11.29882996 16.70496704 -11.30963135 17.5196991 C-11.33833729 20.12262931 -11.33209543 22.7242259 -11.32546997 25.32728577 C-11.33858777 27.13619653 -11.35389225 28.94509264 -11.37129211 30.75396729 C-11.41114559 35.50675685 -11.42133278 40.25916327 -11.42532349 45.01210022 C-11.43465427 49.8653272 -11.47206748 54.718329 -11.5071106 59.57142639 C-11.57168995 69.08769191 -11.60492719 78.60378905 -11.61843872 88.12025452 C-11.94843872 88.12025452 -12.27843872 88.12025452 -12.61843872 88.12025452 C-12.71108188 77.36755552 -12.78217489 66.61495134 -12.82568741 55.86193466 C-12.84657035 50.86895917 -12.87490094 45.87625655 -12.92019653 40.88343811 C-12.963629 36.06588811 -12.98757051 31.24860072 -12.99794769 26.43087006 C-13.00534374 24.59201676 -13.01978641 22.75317797 -13.04135895 20.91443634 C-13.07035874 18.34047282 -13.07439622 15.76759707 -13.07254028 13.1934967 C-13.08692139 12.43176651 -13.10130249 11.67003632 -13.11611938 10.88522339 C-13.08866446 7.37076714 -12.90695501 5.49042688 -10.71505737 2.67817688 C-6.97913986 -0.09784986 -4.64478424 -0.00346109 0 0 Z " fill="#D7ECED" transform="translate(80.61843872070313,186.87974548339844)"/>
<path d="M0 0 C11 2 11 2 12 3 C12.08855161 5.6662603 12.11524673 8.30647114 12.09765625 10.97265625 C12.0962413 11.77029892 12.09482635 12.56794159 12.09336853 13.38975525 C12.08775316 15.94737435 12.07519812 18.50490718 12.0625 21.0625 C12.05748698 22.79231645 12.05292373 24.52213426 12.04882812 26.25195312 C12.03862791 30.50136239 12.01905568 34.75058416 12 39 C20.25 39 28.5 39 37 39 C37 39.33 37 39.66 37 40 C32.68751391 40.02886537 28.37505238 40.04675255 24.0625 40.0625 C22.21495117 40.07506836 22.21495117 40.07506836 20.33007812 40.08789062 C19.16025391 40.09111328 17.99042969 40.09433594 16.78515625 40.09765625 C15.15912476 40.10551147 15.15912476 40.10551147 13.50024414 40.11352539 C11 40 11 40 10 39 C9.84011509 36.48119483 9.74065775 33.98657734 9.68359375 31.46484375 C9.66281265 30.71159317 9.64203156 29.95834259 9.62062073 29.18226624 C9.55504575 26.7674401 9.49620379 24.35250202 9.4375 21.9375 C9.3943223 20.30402471 9.35070827 18.6705609 9.30664062 17.03710938 C9.19935638 13.02485536 9.09811179 9.01248836 9 5 C6.69 4.34 4.38 3.68 2 3 C2 18.51 2 34.02 2 50 C12.56 50 23.12 50 34 50 C34 50.33 34 50.66 34 51 C22.78 51 11.56 51 0 51 C0 34.17 0 17.34 0 0 Z " fill="#E2995F" transform="translate(261,189)"/>
<path d="M0 0 C0.33 0 0.66 0 1 0 C1 26.07 1 52.14 1 79 C-1.475 79.99 -1.475 79.99 -4 81 C-3.0125055 35.19105075 -3.0125055 35.19105075 -2 18 C-1.67 18 -1.34 18 -1 18 C-0.505 9.09 -0.505 9.09 0 0 Z " fill="#578988" transform="translate(253,191)"/>
<path d="M0 0 C2.31 0.33 4.62 0.66 7 1 C9.54889993 4.8233499 9.36755608 8.00464642 9.375 12.4375 C9.39949219 13.20126953 9.42398438 13.96503906 9.44921875 14.75195312 C9.46848015 18.44051119 9.39248386 20.41844286 7.2890625 23.53515625 C5 25 5 25 0 25 C0 16.75 0 8.5 0 0 Z " fill="#FAFAFA" transform="translate(208,208)"/>
<path d="M0 0 C5.68603516 0.87207031 5.68603516 0.87207031 8.51171875 2.0234375 C11.3411379 3.13388457 13.78759289 3.40633202 16.8125 3.625 C18.27623047 3.73714844 18.27623047 3.73714844 19.76953125 3.8515625 C20.50558594 3.90054688 21.24164063 3.94953125 22 4 C22.33 5.98 22.66 7.96 23 10 C22.34 9.67 21.68 9.34 21 9 C21 7.68 21 6.36 21 5 C18.69 5 16.38 5 14 5 C13.67 5.66 13.34 6.32 13 7 C12.34 7 11.68 7 11 7 C10.67 6.34 10.34 5.68 10 5 C7.36 4.34 4.72 3.68 2 3 C2 18.51 2 34.02 2 50 C5.3 50 8.6 50 12 50 C12 36.47 12 22.94 12 9 C12.66 9.33 13.32 9.66 14 10 C13.67 23.86 13.34 37.72 13 52 C9.04 52 5.08 52 1 52 C0 51 0 51 -0.12025452 48.94358826 C-0.11803391 48.03979935 -0.11581329 47.13601044 -0.11352539 46.20483398 C-0.11344986 45.18385117 -0.11337433 44.16286835 -0.11329651 43.11094666 C-0.10813522 42.0005452 -0.10297394 40.89014374 -0.09765625 39.74609375 C-0.0962413 38.61551041 -0.09482635 37.48492706 -0.09336853 36.32008362 C-0.08775019 32.69252935 -0.07519458 29.06503576 -0.0625 25.4375 C-0.05748736 22.98502693 -0.05292405 20.5325529 -0.04882812 18.08007812 C-0.0377748 12.05336455 -0.02101884 6.02668661 0 0 Z " fill="#E2945C" transform="translate(408,188)"/>
<path d="M0 0 C-0.66 0.33 -1.32 0.66 -2 1 C-1.505 1.99 -1.505 1.99 -1 3 C-3.58232914 3.98188561 -6.16578683 4.96059589 -8.75 5.9375 C-9.47960937 6.21529297 -10.20921875 6.49308594 -10.9609375 6.77929688 C-12.02441406 7.18051758 -12.02441406 7.18051758 -13.109375 7.58984375 C-13.75874023 7.83597412 -14.40810547 8.08210449 -15.07714844 8.33569336 C-24.78554355 11.68974911 -34.51271638 10.39842995 -44 7 C-44 10.96 -44 14.92 -44 19 C-44.33 19 -44.66 19 -45 19 C-45.02709444 16.91673869 -45.04643873 14.83337559 -45.0625 12.75 C-45.07410156 11.58984375 -45.08570313 10.4296875 -45.09765625 9.234375 C-45.01782092 6.59022872 -44.78643778 4.50173909 -44 2 C-43.32195313 2.2165625 -42.64390625 2.433125 -41.9453125 2.65625 C-29.02901837 6.52040448 -18.71601384 5.05061985 -6.2265625 -0.15625 C-3.67198094 -1.12430196 -2.52213004 -0.93412224 0 0 Z " fill="#E1EFEF" transform="translate(107,287)"/>
<path d="M0 0 C4.16138263 -0.08159574 7.9472484 0.01751476 12 1 C12.04940499 6.64166991 12.08572193 12.28321413 12.10986328 17.92504883 C12.11992639 19.84466749 12.13357816 21.76427081 12.15087891 23.68383789 C12.17511364 26.44160752 12.18647992 29.19917464 12.1953125 31.95703125 C12.20563507 32.81649857 12.21595764 33.67596588 12.22659302 34.56147766 C12.22674408 35.36208115 12.22689514 36.16268463 12.22705078 36.98754883 C12.231492 37.6914827 12.23593323 38.39541656 12.24050903 39.12068176 C12 41 12 41 10 44 C10 30.14 10 16.28 10 2 C7.36 2 4.72 2 2 2 C2.01571045 3.08941895 2.0314209 4.17883789 2.04760742 5.30126953 C2.10208978 9.36027575 2.13641639 13.4192499 2.16479492 17.47851562 C2.17983995 19.23215173 2.20028104 20.98575047 2.22631836 22.73925781 C2.26289121 25.26637009 2.2797692 27.79298296 2.29296875 30.3203125 C2.30845261 31.09867462 2.32393646 31.87703674 2.33988953 32.6789856 C2.34137782 37.5414689 1.57589309 40.72764214 -1 45 C-1.99 44.67 -2.98 44.34 -4 44 C-3.27087654 43.38447517 -3.27087654 43.38447517 -2.52702332 42.7565155 C-0.67527765 40.626476 -0.61044526 39.67894169 -0.56762695 36.89575195 C-0.53793571 35.6648156 -0.53793571 35.6648156 -0.50764465 34.40901184 C-0.50125473 33.52767075 -0.49486481 32.64632965 -0.48828125 31.73828125 C-0.46135445 30.37959175 -0.46135445 30.37959175 -0.43388367 28.99345398 C-0.37969341 26.09985004 -0.34585714 23.20641185 -0.3125 20.3125 C-0.27933461 18.35088835 -0.24484568 16.38929859 -0.20898438 14.42773438 C-0.12396194 9.61860903 -0.0571924 4.80953359 0 0 Z " fill="#E09359" transform="translate(388,183)"/>
<path d="M0 0 C0.99 0 1.98 0 3 0 C3 15.18 3 30.36 3 46 C2.67 46 2.34 46 2 46 C1.67 43.69 1.34 41.38 1 39 C0.67 51.54 0.34 64.08 0 77 C-0.33 77 -0.66 77 -1 77 C-1.02312428 67.10810624 -1.04091552 57.21621886 -1.05181217 47.32430363 C-1.05704082 42.7315736 -1.06413812 38.138862 -1.07543945 33.54614258 C-1.086269 29.11766312 -1.09227698 24.68920144 -1.09487724 20.26070976 C-1.09673137 18.56734372 -1.10035175 16.87397871 -1.10573006 15.18062019 C-1.1129414 12.81708768 -1.1139909 10.45362955 -1.11352539 8.09008789 C-1.11712067 7.38302704 -1.12071594 6.67596619 -1.12442017 5.94747925 C-1.11405216 1.11405216 -1.11405216 1.11405216 0 0 Z " fill="#356C6E" transform="translate(250,191)"/>
<path d="M0 0 C1.4540625 0.0309375 1.4540625 0.0309375 2.9375 0.0625 C2.84995449 1.81341019 2.74176627 3.56329551 2.625 5.3125 C2.56699219 6.28703125 2.50898438 7.2615625 2.44921875 8.265625 C1.87674453 11.39456809 0.81963739 12.56578713 -1.0625 15.0625 C-1.84878026 18.09518887 -1.84878026 18.09518887 -2.25 21.3125 C-2.40855469 22.39015625 -2.56710937 23.4678125 -2.73046875 24.578125 C-2.84003906 25.39796875 -2.94960938 26.2178125 -3.0625 27.0625 C-3.3925 27.0625 -3.7225 27.0625 -4.0625 27.0625 C-4.09136537 22.75001391 -4.10925255 18.43755238 -4.125 14.125 C-4.13337891 12.89330078 -4.14175781 11.66160156 -4.15039062 10.39257812 C-4.15361328 9.22275391 -4.15683594 8.05292969 -4.16015625 6.84765625 C-4.16539307 5.76363525 -4.17062988 4.67961426 -4.17602539 3.56274414 C-4.00836585 -0.12973192 -3.76249955 0.07678571 0 0 Z " fill="#EE6D16" transform="translate(362.0625,191.9375)"/>
<path d="M0 0 C0 17.16 0 34.32 0 52 C-4.62 52 -9.24 52 -14 52 C-17 46 -17 46 -17 44 C-16.34 44 -15.68 44 -15 44 C-14.67 45.65 -14.34 47.3 -14 49 C-9.71 49.66 -5.42 50.32 -1 51 C-1.33 35.16 -1.66 19.32 -2 3 C-4.64 3 -7.28 3 -10 3 C-6.41600853 0.61067235 -4.26804999 0 0 0 Z " fill="#D47E42" transform="translate(451,187)"/>
<path d="M0 0 C0.99 0.33 1.98 0.66 3 1 C1.78290092 1.98990181 1.78290092 1.98990181 0.54121399 2.99980164 C-2.59128357 6.69807896 -2.7134548 9.37136666 -2.65942383 14.00317383 C-2.66990753 14.79394318 -2.68039124 15.58471252 -2.69119263 16.39944458 C-2.71989857 19.0023748 -2.71365671 21.60397138 -2.70703125 24.20703125 C-2.72014905 26.01594201 -2.73545353 27.82483813 -2.75285339 29.63371277 C-2.79270687 34.38650233 -2.80289405 39.13890875 -2.80688477 43.8918457 C-2.81621555 48.74507269 -2.85362876 53.59807449 -2.88867188 58.45117188 C-2.95325123 67.96743739 -2.98648846 77.48353453 -3 87 C-3.33 87 -3.66 87 -4 87 C-4.09264316 76.24730101 -4.16373616 65.49469682 -4.20724869 54.74168015 C-4.22813162 49.74870466 -4.25646222 44.75600203 -4.30175781 39.76318359 C-4.34519028 34.94563359 -4.36913178 30.1283462 -4.37950897 25.31061554 C-4.38690502 23.47176224 -4.40134769 21.63292346 -4.42292023 19.79418182 C-4.45192002 17.2202183 -4.4559575 14.64734255 -4.45410156 12.07324219 C-4.46848267 11.31151199 -4.48286377 10.5497818 -4.49768066 9.76496887 C-4.46940581 6.14555444 -4.28604853 4.35320319 -1.97161865 1.49542236 C-1.3209845 1.00193298 -0.67035034 0.5084436 0 0 Z " fill="#EAF1F1" transform="translate(72,188)"/>
<path d="M0 0 C2.53605069 2.53605069 2.79250373 4.46876556 3.625 7.9375 C3.88539063 8.99839844 4.14578125 10.05929688 4.4140625 11.15234375 C5 14 5 14 5 17 C2.03 17 -0.94 17 -4 17 C-3.51053237 10.73481438 -2.42378711 5.79601264 0 0 Z " fill="#FAF7EA" transform="translate(326,203)"/>
<path d="M0 0 C1.84214393 2.7632159 2.60819963 4.61429764 3.5078125 7.74609375 C3.77207031 8.66583984 4.03632813 9.58558594 4.30859375 10.53320312 C4.57800781 11.49162109 4.84742188 12.45003906 5.125 13.4375 C5.40214844 14.39205078 5.67929687 15.34660156 5.96484375 16.33007812 C6.22652344 17.25111328 6.48820312 18.17214844 6.7578125 19.12109375 C6.9964502 19.9608374 7.23508789 20.80058105 7.48095703 21.66577148 C8 24 8 24 8 28 C5.03 28 2.06 28 -1 28 C-1 27.67 -1 27.34 -1 27 C1.31 27 3.62 27 6 27 C6 26.34 6 25.68 6 25 C4.35 24.67 2.7 24.34 1 24 C1.01160156 23.35675781 1.02320313 22.71351563 1.03515625 22.05078125 C1.10901995 14.65385931 0.65578395 7.36585905 0 0 Z " fill="#E97B30" transform="translate(340,212)"/>
<path d="M0 0 C4.86896303 0.59619955 9.32790951 1.56976822 14 3 C14 3.33 14 3.66 14 4 C9.62065881 3.48041715 5.31196609 2.94324258 1 2 C1 2.66 1 3.32 1 4 C1.99 4 2.98 4 4 4 C4 4.66 4 5.32 4 6 C3.01 6.495 3.01 6.495 2 7 C-0.54919268 10.62493895 -1.63420177 13.94269622 -2.5625 18.25 C-2.97935172 20.18117748 -3.44458375 22.10402411 -4 24 C-4.66 24.33 -5.32 24.66 -6 25 C-5.2744391 20.18560113 -4.19867409 15.52467894 -3 10.8125 C-2.82210938 10.10158203 -2.64421875 9.39066406 -2.4609375 8.65820312 C-1.72394123 5.73496794 -0.95370209 2.86110628 0 0 Z " fill="#DE803C" transform="translate(319,184)"/>
<path d="M0 0 C0.33 1.65 0.66 3.3 1 5 C0.38125 5.04125 -0.2375 5.0825 -0.875 5.125 C-1.57625 5.41375 -2.2775 5.7025 -3 6 C-4.3045656 8.99615946 -4.3045656 8.99615946 -5 12 C-5.33 11.34 -5.66 10.68 -6 10 C-6.66 10 -7.32 10 -8 10 C-8.8125 7.8125 -8.8125 7.8125 -9 5 C-5.9742869 1.10979744 -5.04048781 0 0 0 Z " fill="#457A79" transform="translate(73,183)"/>
<path d="M0 0 C0.9867097 3.11074833 0.96838493 5.16442757 0.22265625 8.328125 C0.03896484 9.12734375 -0.14472656 9.9265625 -0.33398438 10.75 C-0.53314453 11.575 -0.73230469 12.4 -0.9375 13.25 C-1.13279297 14.09046875 -1.32808594 14.9309375 -1.52929688 15.796875 C-2.01142286 17.86648898 -2.50463863 19.93351395 -3 22 C-0.03 22 2.94 22 6 22 C6 22.33 6 22.66 6 23 C2.04 23 -1.92 23 -6 23 C-5.28716318 17.87085227 -3.93243564 13.06624386 -2.4375 8.125 C-2.20353516 7.34125 -1.96957031 6.5575 -1.72851562 5.75 C-1.15556462 3.83236805 -0.57822809 1.91604734 0 0 Z " fill="#E28E54" transform="translate(310,217)"/>
<path d="M0 0 C-0.33 0.33 -0.66 0.66 -1 1 C-0.34 1.33 0.32 1.66 1 2 C1 6.62 1 11.24 1 16 C-0.65 16.33 -2.3 16.66 -4 17 C-3.01 16.34 -2.02 15.68 -1 15 C-0.41518879 12.11404054 -0.41518879 12.11404054 -0.3125 8.875 C-0.24675781 7.77929688 -0.18101562 6.68359375 -0.11328125 5.5546875 C-0.07589844 4.71164062 -0.03851563 3.86859375 0 3 C-2.31 3.66 -4.62 4.32 -7 5 C-6.67 4.01 -6.34 3.02 -6 2 C-6.7425 2.350625 -7.485 2.70125 -8.25 3.0625 C-11.21122875 4.0720098 -12.12062561 3.87980884 -15 3 C-13.25531628 2.29911844 -11.50398839 1.61475991 -9.75 0.9375 C-8.77546875 0.55464844 -7.8009375 0.17179687 -6.796875 -0.22265625 C-3.95992605 -1.01113787 -2.70590448 -1.02437812 0 0 Z " fill="#C6DFDE" transform="translate(253,288)"/>
<path d="M0 0 C2.83857246 2.83857246 3.8151351 6.3059166 5.1875 10 C5.47302734 10.73734375 5.75855469 11.4746875 6.05273438 12.234375 C6.76499755 14.13374348 7.38924683 16.06560087 8 18 C7.67 18.66 7.34 19.32 7 20 C6.34 19.67 5.68 19.34 5 19 C4.59270772 16.67843403 4.25561323 14.3431213 4 12 C2.68 12.33 1.36 12.66 0 13 C0 8.71 0 4.42 0 0 Z " fill="#F8E8CF" transform="translate(421,198)"/>
<path d="M0 0 C4.95 0 9.9 0 15 0 C14.67 0.66 14.34 1.32 14 2 C11.453125 2.6328125 11.453125 2.6328125 8.25 3.125 C7.20328125 3.29257812 6.1565625 3.46015625 5.078125 3.6328125 C2.3438423 3.95898328 -0.25107058 4.07126854 -3 4 C-2.67 3.34 -2.34 2.68 -2 2 C-1.34 2 -0.68 2 0 2 C0 1.34 0 0.68 0 0 Z " fill="#F5FAFA" transform="translate(107,285)"/>
<path d="M0 0 C0.61875 0.804375 1.2375 1.60875 1.875 2.4375 C3.74164041 5.03874519 3.74164041 5.03874519 6 6 C7.70702735 6.06996014 9.41668003 6.08440154 11.125 6.0625 C12.03507812 6.05347656 12.94515625 6.04445312 13.8828125 6.03515625 C14.58148438 6.02355469 15.28015625 6.01195312 16 6 C15.67 6.66 15.34 7.32 15 8 C12.8203125 8.37890625 12.8203125 8.37890625 10.125 8.5625 C7.13203161 8.77628346 4.8671313 9.04428957 2 10 C2.33 8.68 2.66 7.36 3 6 C1.35 6.66 -0.3 7.32 -2 8 C-2.33 7.34 -2.66 6.68 -3 6 C-2.34 5.67 -1.68 5.34 -1 5 C-0.34444881 2.47266765 -0.34444881 2.47266765 0 0 Z " fill="#E3813D" transform="translate(368,222)"/>
<path d="M0 0 C6.27 0 12.54 0 19 0 C18.67 0.66 18.34 1.32 18 2 C17.01257813 1.98839844 16.02515625 1.97679687 15.0078125 1.96484375 C13.72648437 1.95582031 12.44515625 1.94679687 11.125 1.9375 C9.21074219 1.92009766 9.21074219 1.92009766 7.2578125 1.90234375 C4.11335348 1.76823431 4.11335348 1.76823431 2 3 C0.95191959 4.97522846 -0.0520411 6.97481509 -1 9 C-2.48576635 4.98843085 -1.80747878 4.51869696 0 0 Z " fill="#F6D3A8" transform="translate(318,231)"/>
<path d="M0 0 C1.231394 2.46278801 1.07159196 4.2795055 1 7 C1.66 7 2.32 7 3 7 C3.33 8.32 3.66 9.64 4 11 C2.68 11.33 1.36 11.66 0 12 C0 12.66 0 13.32 0 14 C-0.99 13.67 -1.98 13.34 -3 13 C-2.69240822 11.02006459 -2.3787932 9.04106401 -2.0625 7.0625 C-1.88847656 5.96035156 -1.71445312 4.85820312 -1.53515625 3.72265625 C-1 1 -1 1 0 0 Z " fill="#F36C10" transform="translate(364,216)"/>
<path d="M0 0 C1.32 0.33 2.64 0.66 4 1 C4.33 4.3 4.66 7.6 5 11 C5.99 11 6.98 11 8 11 C7.67 13.64 7.34 16.28 7 19 C4.85357551 15.78036326 3.64118646 12.55570141 2.375 8.9375 C2.14554687 8.30005859 1.91609375 7.66261719 1.6796875 7.00585938 C0 2.261742 0 2.261742 0 0 Z " fill="#E27F38" transform="translate(427,212)"/>
<path d="M0 0 C-0.99 0.495 -0.99 0.495 -2 1 C-1.67 1.66 -1.34 2.32 -1 3 C-4.82989106 4.80230168 -7.78121808 5.19622241 -12 5 C-5.60587432 -1.7397541 -5.60587432 -1.7397541 0 0 Z " fill="#E4F1F2" transform="translate(107,287)"/>
<path d="M0 0 C0.33 0.99 0.66 1.98 1 3 C-4.06699482 7.16217431 -8.34540028 7.14119546 -14.75 7.0625 C-15.44738281 7.05798828 -16.14476562 7.05347656 -16.86328125 7.04882812 C-18.57555803 7.0371002 -20.28779033 7.01916653 -22 7 C-22.33 6.34 -22.66 5.68 -23 5 C-22.01 5.05800781 -21.02 5.11601562 -20 5.17578125 C-11.96578422 5.5010943 -6.47454492 5.28534279 0 0 Z " fill="#F5DEC5" transform="translate(393,234)"/>
<path d="M0 0 C2.37599719 3.56399578 3.15731805 7.08381174 4.125 11.1875 C4.39763672 12.31188477 4.39763672 12.31188477 4.67578125 13.45898438 C5.12251686 15.30470781 5.5619694 17.15219132 6 19 C5.34 19 4.68 19 4 19 C4 17.35 4 15.7 4 14 C3.01 13.67 2.02 13.34 1 13 C0.67 8.71 0.34 4.42 0 0 Z " fill="#E0823F" transform="translate(340,212)"/>
<path d="M0 0 C2.97 0.495 2.97 0.495 6 1 C5.67 1.66 5.34 2.32 5 3 C3.68 2.67 2.36 2.34 1 2 C1.45822468 5.46941546 1.89131683 8.67395049 3 12 C4.65 12 6.3 12 8 12 C6.25 13.125 6.25 13.125 4 14 C2.68 13.34 1.36 12.68 0 12 C0 8.04 0 4.08 0 0 Z " fill="#4C9C99" transform="translate(63,277)"/>
<path d="M0 0 C3.0390625 -0.29296875 3.0390625 -0.29296875 6.625 -0.1875 C7.81351563 -0.16042969 9.00203125 -0.13335937 10.2265625 -0.10546875 C11.14179688 -0.07066406 12.05703125 -0.03585937 13 0 C10.22957891 2.77042109 8.23466195 2.39796106 4.375 2.625 C3.18648437 2.69976562 1.99796875 2.77453125 0.7734375 2.8515625 C-0.59941406 2.92503906 -0.59941406 2.92503906 -2 3 C-1.34 2.01 -0.68 1.02 0 0 Z " fill="#F5FDFC" transform="translate(183,285)"/>
<path d="M0 0 C-6.59874523 5.02761541 -12.95127124 4.40187827 -21 4 C-21 3.67 -21 3.34 -21 3 C-19.69675781 2.81824219 -19.69675781 2.81824219 -18.3671875 2.6328125 C-17.21476563 2.46523438 -16.06234375 2.29765625 -14.875 2.125 C-13.16957031 1.88136719 -13.16957031 1.88136719 -11.4296875 1.6328125 C-7.9772774 1.08283813 -7.9772774 1.08283813 -4.6953125 -0.1328125 C-2 -1 -2 -1 0 0 Z " fill="#56A29F" transform="translate(172,277)"/>
<path d="M0 0 C1.84765625 0.33984375 1.84765625 0.33984375 4.0625 0.9375 C5.16271484 1.22947266 5.16271484 1.22947266 6.28515625 1.52734375 C7.13400391 1.76130859 7.13400391 1.76130859 8 2 C7.01 2.66 6.02 3.32 5 4 C5.99 4.99 6.98 5.98 8 7 C1.35384615 5.52307692 1.35384615 5.52307692 -0.4375 2.875 C-0.623125 2.25625 -0.80875 1.6375 -1 1 C-0.67 0.67 -0.34 0.34 0 0 Z " fill="#D4E7E8" transform="translate(212,289)"/>
<path d="M0 0 C0.66 0 1.32 0 2 0 C2.33 1.65 2.66 3.3 3 5 C7.29 5.66 11.58 6.32 16 7 C16 7.33 16 7.66 16 8 C11.71 8 7.42 8 3 8 C0 2.25 0 2.25 0 0 Z " fill="#DD7934" transform="translate(434,231)"/>
<path d="M0 0 C0.66 0.33 1.32 0.66 2 1 C2.40729228 3.32156597 2.74438677 5.6568787 3 8 C2.34 7.34 1.68 6.68 1 6 C-1.57061311 5.35232207 -1.57061311 5.35232207 -4 5 C-4 4.01 -4 3.02 -4 2 C-2.68 2 -1.36 2 0 2 C0 1.34 0 0.68 0 0 Z " fill="#E37B2F" transform="translate(333,188)"/>
<path d="M0 0 C3.96 0 7.92 0 12 0 C12 0.33 12 0.66 12 1 C8.37 1 4.74 1 1 1 C1.66 2.98 2.32 4.96 3 7 C2.01 7 1.02 7 0 7 C0 4.69 0 2.38 0 0 Z " fill="#C2D8D6" transform="translate(408,245)"/>
<path d="M0 0 C0.99 0.33 1.98 0.66 3 1 C2.34 3.31 1.68 5.62 1 8 C-0.32 7.67 -1.64 7.34 -3 7 C-2.01 7 -1.02 7 0 7 C0 6.01 0 5.02 0 4 C-0.66 4 -1.32 4 -2 4 C-1.34 2.68 -0.68 1.36 0 0 Z " fill="#E47325" transform="translate(315,231)"/>
<path d="M0 0 C0.33 0 0.66 0 1 0 C1.33 3.96 1.66 7.92 2 12 C-0.86177057 13.43088528 -2.93375773 12.59991697 -6 12 C-6 11.67 -6 11.34 -6 11 C-4.02 11 -2.04 11 0 11 C0 7.37 0 3.74 0 0 Z " fill="#E1EEEE" transform="translate(379,292)"/>
<path d="M0 0 C2.475 0.99 2.475 0.99 5 2 C5 2.99 5 3.98 5 5 C2.69 4.67 0.38 4.34 -2 4 C-1.34 2.68 -0.68 1.36 0 0 Z " fill="#DBEDED" transform="translate(143,291)"/>
<path d="M0 0 C2 2 2 2 2 6 C1.01 6 0.02 6 -1 6 C-1.33 7.32 -1.66 8.64 -2 10 C-3 8 -3 8 -2.44140625 6.0546875 C-2.15136719 5.33539063 -1.86132812 4.61609375 -1.5625 3.875 C-1.27503906 3.15054688 -0.98757813 2.42609375 -0.69140625 1.6796875 C-0.46324219 1.12539062 -0.23507812 0.57109375 0 0 Z " fill="#F5E2C0" transform="translate(326,203)"/>
<path d="M0 0 C-0.33 0.33 -0.66 0.66 -1 1 C-0.34 1.66 0.32 2.32 1 3 C-0.65 3.33 -2.3 3.66 -4 4 C-4 3.34 -4 2.68 -4 2 C-5.32 1.67 -6.64 1.34 -8 1 C-2.25 -1.125 -2.25 -1.125 0 0 Z " fill="#D6EBEB" transform="translate(183,286)"/>
<path d="M0 0 C1.60367894 4.00919734 0.31933425 7.04199726 -1 11 C-1.33 11.66 -1.66 12.32 -2 13 C-2.66 13 -3.32 13 -4 13 C-3.52140759 11.39566191 -3.04210442 9.79153584 -2.5625 8.1875 C-2.29566406 7.29417969 -2.02882813 6.40085937 -1.75390625 5.48046875 C-1.19612127 3.64526945 -0.60655425 1.81966274 0 0 Z " fill="#CFE2E1" transform="translate(446,257)"/>
<path d="M0 0 C2.34914492 2.34914492 2.73140357 3.95679446 3.625 7.125 C3.88539063 8.03507813 4.14578125 8.94515625 4.4140625 9.8828125 C4.70410156 10.93082031 4.70410156 10.93082031 5 12 C2.69857565 10.21825212 1.19965609 8.83695835 0.51171875 5.953125 C0.27676898 3.9753389 0.13248542 1.98728128 0 0 Z " fill="#DF864B" transform="translate(431,198)"/>
<path d="M0 0 C1.32 0 2.64 0 4 0 C3.67 0.99 3.34 1.98 3 3 C0.69 3.33 -1.62 3.66 -4 4 C-4 3.34 -4 2.68 -4 2 C-2.68 2 -1.36 2 0 2 C0 1.34 0 0.68 0 0 Z " fill="#F4F8FA" transform="translate(175,288)"/>
<path d="M0 0 C1.65 0 3.3 0 5 0 C3.35 2.64 1.7 5.28 0 8 C-0.92538169 4.29847322 -1.08174162 3.36541838 0 0 Z " fill="#F7E9D2" transform="translate(317,232)"/>
<path d="M0 0 C-0.33 0.99 -0.66 1.98 -1 3 C-4.3 3.33 -7.6 3.66 -11 4 C-7.61125486 1.74083657 -4.15175481 0 0 0 Z " fill="#517F7F" transform="translate(103,291)"/>
<path d="M0 0 C1.32 1.65 2.64 3.3 4 5 C1.35261084 6.4606285 0.10551666 7 -3 7 C-2.34 6.34 -1.68 5.68 -1 5 C-0.35232207 2.42938689 -0.35232207 2.42938689 0 0 Z " fill="#E6762C" transform="translate(368,222)"/>
<path d="M0 0 C-0.66 1.65 -1.32 3.3 -2 5 C-3.98 4.34 -5.96 3.68 -8 3 C-2 0 -2 0 0 0 Z " fill="#4C807B" transform="translate(252,291)"/>
<path d="M0 0 C-0.33 0.33 -0.66 0.66 -1 1 C-0.34 1.66 0.32 2.32 1 3 C-0.65 3.33 -2.3 3.66 -4 4 C-4 3.34 -4 2.68 -4 2 C-4.99 1.34 -5.98 0.68 -7 0 C-2.25 -1.125 -2.25 -1.125 0 0 Z " fill="#C9E4E4" transform="translate(91,292)"/>
</svg>
